<svg width="26" height="25" viewBox="0 0 26 25" fill="none" xmlns="http://www.w3.org/2000/svg">
<g clip-path="url(#clip0_90_39)">
<path d="M12.9677 20.6837C8.33276 20.6837 4.58235 17.0235 4.58235 12.5C4.58235 7.97652 8.33276 4.31631 12.9677 4.31631C17.6026 4.31631 21.353 7.97652 21.353 12.5C21.353 13.6395 21.1053 14.7445 20.6807 15.7113L23.9358 18.8881C25.1033 17.0235 25.7402 14.8135 25.7402 12.4655C25.7756 5.59393 20.0439 0 12.9677 0C5.89145 0 0.159729 5.59393 0.159729 12.5C0.159729 19.4061 5.89145 25 12.9677 25C15.3736 25 17.638 24.3439 19.5485 23.2389L16.2581 20.0276C15.2674 20.442 14.1352 20.6837 12.9677 20.6837ZM10.491 12.5C10.491 13.8467 11.5878 14.9171 12.9677 14.9171C14.3475 14.9171 15.4443 13.8467 15.4443 12.5C15.4443 11.1533 14.3475 10.0829 12.9677 10.0829C11.5878 10.0829 10.491 11.1533 10.491 12.5ZM25.1033 21.3052C25.9525 22.134 25.9525 23.5152 25.1033 24.3439C24.2542 25.1727 22.839 25.1727 21.9898 24.3439L15.5151 18.0249C14.6659 17.1961 14.6659 15.8149 15.5151 14.9862C16.3642 14.1575 17.7795 14.1575 18.6286 14.9862L25.1033 21.3052Z" fill="#323232"/>
</g>
<defs>
<clipPath id="clip0_90_39">
<rect width="26" height="25" fill="white"/>
</clipPath>
</defs>
</svg>
