<svg width="44" height="44" viewBox="0 0 44 44" fill="none" xmlns="http://www.w3.org/2000/svg">
<g clip-path="url(#clip0_90_41)">
<path d="M40.7403 28.908L40.3278 26.8455H35.7188L34.9855 28.8933L31.2913 28.9007C33.05 24.6714 34.8125 20.4438 36.5787 16.2177C36.8793 15.5008 37.4128 15.136 38.1993 15.1397C38.8007 15.1452 39.7815 15.1452 41.1437 15.1415L44 28.9025L40.7403 28.908ZM36.7565 24.0203H39.7265L38.6173 18.8503L36.7565 24.0203ZM12.9433 15.1378L16.6577 15.1415L10.9157 28.9098L7.1555 28.9062C6.20996 25.2694 5.27617 21.6296 4.35417 17.9868C4.17083 17.2608 3.80783 16.753 3.10933 16.5128C2.48783 16.2983 1.452 15.9683 0 15.5192V15.1433H5.9345C6.96117 15.1433 7.56067 15.6402 7.75317 16.6595C7.9475 17.6807 8.43517 20.2803 9.21983 24.4585L12.9433 15.1378ZM21.7617 15.1415L18.8247 28.9062L15.29 28.9025L18.2233 15.1378L21.7617 15.1415ZM28.93 14.8867C29.9878 14.8867 31.3207 15.2167 32.087 15.5192L31.4673 18.3737C30.7743 18.095 29.634 17.7192 28.6752 17.732C27.2818 17.7558 26.4202 18.3407 26.4202 18.9017C26.4202 19.8147 27.9162 20.2748 29.4562 21.2722C31.2143 22.4088 31.4453 23.43 31.4233 24.5392C31.3995 26.8418 29.4562 29.1133 25.3568 29.1133C23.4868 29.0858 22.8122 28.9282 21.2868 28.3873L21.9322 25.4082C23.485 26.059 24.1432 26.2662 25.4705 26.2662C26.686 26.2662 27.7292 25.7748 27.7383 24.9187C27.7457 24.31 27.3717 24.0075 26.0077 23.2558C24.6437 22.5023 22.7297 21.4592 22.7553 19.3655C22.7865 16.6852 25.3257 14.8867 28.9318 14.8867H28.93Z" fill="#323232"/>
</g>
<defs>
<clipPath id="clip0_90_41">
<rect width="44" height="44" fill="white"/>
</clipPath>
</defs>
</svg>
